<?xml version="1.0" encoding="UTF-8"?>
<svg width="37px" height="36px" viewBox="0 0 37 36" version="1.1" xmlns="http://www.w3.org/2000/svg" xmlns:xlink="http://www.w3.org/1999/xlink">
    <title>34DDFBC7-5A0F-44F5-89B7-5EA855F979F5</title>
    <g id="Web-/-Under-Construction" stroke="none" stroke-width="1" fill="none" fill-rule="evenodd">
        <g id="Wallet" transform="translate(-282.000000, -400.000000)" fill="#544E4E" fill-rule="nonzero">
            <g id="Group-5" transform="translate(65.000000, 385.000000)">
                <g id="noun_link_1797964" transform="translate(235.500000, 33.000000) rotate(-44.000000) translate(-235.500000, -33.000000) translate(217.930009, 25.876593)">
                    <g id="Group" transform="translate(0.000000, 0.000000)">
                        <path d="M6.74996368,0.246814299 C3.0299462,0.246814299 -3.63797881e-12,3.38908643 -3.63797881e-12,7.24687288 C-3.63797881e-12,11.1046827 3.0299462,14.2468143 6.74996368,14.2468143 L14.2499233,14.2468143 C17.9699408,14.2468143 21,11.1046827 21,7.24687288 C21.0056248,6.8261345 20.7924659,6.43478475 20.4420331,6.22267911 C20.0916002,6.01057347 19.6581859,6.01057347 19.3077531,6.22267911 C18.9573202,6.43478475 18.7441613,6.8261345 18.7498991,7.24687288 C18.7498991,9.85237228 16.7623723,11.9135005 14.2499233,11.9135005 L6.74996368,11.9135005 C4.2375147,11.9135005 2.24998789,9.85237228 2.24998789,7.24687288 C2.24998789,4.64138127 4.2375147,2.58024528 6.74996368,2.58024528 L13.8749253,2.58024528 C14.2806386,2.58619561 14.6580128,2.36514262 14.8625438,2.00173183 C15.0670749,1.63832104 15.0670749,1.1888557 14.8625438,0.825444913 C14.6580128,0.462034121 14.2806386,0.240981132 13.8749253,0.246814299 L6.74996368,0.246814299 Z M20.8900584,0 C17.1700409,0 14.1399817,3.14215496 14.1399817,6.99994141 C14.1343569,7.4206798 14.3475158,7.81202954 14.6979486,8.02413519 C15.0483815,8.23624083 15.4817958,8.23624083 15.8322286,8.02413519 C16.1826615,7.81202954 16.3958204,7.4206798 16.3900826,6.99994141 C16.3900826,4.3944498 18.3776094,2.3333138 20.8900584,2.3333138 L28.390018,2.3333138 C30.902467,2.3333138 32.8899938,4.3944498 32.8899938,6.99994141 C32.8899938,9.60544081 30.902467,11.666569 28.390018,11.666569 L21.2650564,11.666569 C20.8593431,11.6606187 20.481969,11.8816717 20.2774379,12.2450825 C20.0729068,12.6084933 20.0729068,13.0579586 20.2774379,13.4213694 C20.481969,13.7847802 20.8593431,14.0058332 21.2650564,14 L28.390018,14 C32.1100355,14 35.1399817,10.8577512 35.1399817,6.99994141 C35.1399817,3.14215496 32.1100355,0 28.390018,0 L20.8900584,0 L20.8900584,0 Z" id="Shape"></path>
                    </g>
                </g>
            </g>
        </g>
    </g>
</svg>