<?xml version="1.0" encoding="UTF-8"?>
<svg width="31px" height="31px" viewBox="0 0 31 31" version="1.1" xmlns="http://www.w3.org/2000/svg" xmlns:xlink="http://www.w3.org/1999/xlink">
    <title>73EF7D80-1BBF-431E-BB1F-D4B089509C3F</title>
    <g id="Web-/-Under-Construction" stroke="none" stroke-width="1" fill="none" fill-rule="evenodd">
        <g id="Wallet" transform="translate(-53.000000, -1347.000000)" fill="#000000" fill-rule="nonzero">
            <g id="Group" transform="translate(53.000000, 1347.000000)">
                <path d="M29.4130677,12.2458742 L27.2372001,11.8767495 C27.0105472,11.144976 26.7191364,10.4391059 26.3629675,9.76561521 L27.6451753,7.97179862 C28.1891422,7.20764571 28.1049568,6.16503029 27.4379498,5.50449133 L25.5081624,3.57468143 C25.1455178,3.21203259 24.6663089,3.01128055 24.1547209,3.01128055 C23.7532216,3.01128055 23.3711496,3.13432212 23.0473597,3.36745352 L21.2470883,4.64967621 C20.5477023,4.28055149 19.8159373,3.9761855 19.0582691,3.74952998 L18.6956245,1.59954042 C18.5402054,0.673490704 17.7436824,0 16.8046919,0 L14.0783816,0 C13.1393911,0 12.3428681,0.673490704 12.187449,1.59954042 L11.8118528,3.80133695 C11.0865636,4.02799248 10.3807018,4.3258826 9.70721895,4.68853144 L7.92637492,3.40630875 C7.60258509,3.17317736 7.2140373,3.05013578 6.81253792,3.05013578 C6.30094999,3.05013578 5.81526526,3.25088782 5.45909645,3.61353666 L3.5228333,5.54334656 C2.86230205,6.20388552 2.7716409,7.24650094 3.31560781,8.01065385 L4.61076711,9.83037393 C4.2545983,10.5103405 3.96966325,11.2162106 3.74948617,11.9479841 L1.59952174,12.310633 C0.673482836,12.4660539 0,13.2625862 0,14.2015876 L0,16.9279298 C0,17.8669313 0.673482836,18.6634635 1.59952174,18.8188845 L3.80129255,19.1944851 C4.02794542,19.9197827 4.32583206,20.6256528 4.68847667,21.2991435 L3.41274476,23.0735325 C2.86877785,23.8376854 2.9529632,24.8803008 3.61997024,25.5408398 L5.5497576,27.4706497 C5.9124022,27.8332985 6.39161114,28.0340506 6.90319907,28.0340506 C7.30469845,28.0340506 7.68677044,27.911009 8.01056027,27.6778776 L9.83025909,26.3827032 C10.4843145,26.7259244 11.170749,27.0043869 11.8766108,27.2245665 L12.2392554,29.4004596 C12.3946745,30.3265093 13.1911975,31 14.130188,31 L16.8629741,31 C17.8019646,31 18.5984875,30.3265093 18.7539067,29.4004596 L19.1230271,27.2245665 C19.8547921,26.997911 20.5606539,26.7064968 21.2341367,26.3503238 L23.0279324,27.6325465 C23.3517222,27.8656779 23.74027,27.9887194 24.1417693,27.9887194 L24.1417693,27.9887194 C24.6533573,27.9887194 25.1325662,27.7879674 25.4952108,27.4253186 L27.4249982,25.4955087 C28.0855294,24.8349697 28.1761906,23.7923543 27.6322237,23.0282014 L26.350016,21.2279089 C26.7061848,20.5479423 27.0040714,19.8420723 27.2242485,19.1167746 L29.4001161,18.7541258 C30.326155,18.5987048 30.9998215,17.8021726 30.9998215,16.8631711 L30.9998215,14.1368289 C31.0125894,13.1978274 30.3391066,12.4012952 29.4130677,12.2458742 Z M29.2641244,16.8631711 C29.2641244,16.9473574 29.2058422,17.018592 29.1216569,17.0315438 L26.4018223,17.4848548 C26.0586051,17.5431377 25.7866217,17.7956967 25.7024363,18.1259662 C25.456356,19.0779194 25.0807598,19.9910173 24.5756477,20.8393566 C24.4008012,21.1372467 24.4137528,21.5063714 24.6145025,21.7913098 L26.2140242,24.0449133 C26.2593548,24.109672 26.252879,24.2068101 26.1945968,24.265093 L24.2648095,26.1949029 C24.2194789,26.240234 24.1741483,26.2467098 24.1417693,26.2467098 C24.1029146,26.2467098 24.0705356,26.2337581 24.0446324,26.2143305 L21.797531,24.6147901 C21.5190718,24.414038 21.1434756,24.4010863 20.8455889,24.5759348 C19.9972596,25.0810529 19.0841723,25.4566534 18.1322302,25.7027366 C17.7954888,25.7869229 17.5429327,26.0653854 17.4911263,26.4021308 L17.0313448,29.1219971 C17.0183932,29.2061834 16.9471594,29.2644663 16.8629741,29.2644663 L14.1366638,29.2644663 C14.0524784,29.2644663 13.9812446,29.2061834 13.968293,29.1219971 L13.5149873,26.4021308 C13.4567051,26.0589095 13.2041491,25.7869229 12.8738834,25.7027366 C11.9478445,25.4631293 11.0541846,25.0940046 10.2188069,24.6147901 C10.0828151,24.5370796 9.92739603,24.4982244 9.77845271,24.4982244 C9.60360621,24.4982244 9.42228391,24.5500313 9.27334059,24.6601212 L7.00681181,26.2726133 C6.97443283,26.2920409 6.94205385,26.3049927 6.90967486,26.3049927 C6.88377168,26.3049927 6.83196531,26.2985168 6.78663473,26.2531857 L4.85684737,24.3233758 C4.79856521,24.265093 4.79208941,24.1744307 4.83741998,24.1031962 L6.43046592,21.8690203 C6.63121562,21.5840819 6.64416721,21.2084813 6.4693207,20.9105912 C5.96420858,20.0687278 5.57566079,19.1556298 5.32958052,18.2036766 C5.23891937,17.8734071 4.96693591,17.6208481 4.6301945,17.5625653 L1.89093258,17.0963025 C1.80674722,17.0833507 1.74846505,17.0121161 1.74846505,16.9279298 L1.74846505,14.2015876 C1.74846505,14.1174013 1.80674722,14.0461667 1.89093258,14.033215 L4.59133972,13.5799039 C4.93455693,13.5216211 5.21301618,13.269062 5.29720154,12.9323167 C5.53680601,11.9803635 5.90592641,11.0607896 6.40456274,10.2124504 C6.57940924,9.91456027 6.55998185,9.54543555 6.35923216,9.26697305 L4.74675883,7.0004178 C4.70142826,6.93565908 4.70790405,6.83852099 4.76618622,6.78023814 L6.69597358,4.85042824 C6.74130416,4.80509714 6.78663473,4.79862127 6.81901371,4.79862127 C6.85786849,4.79862127 6.89024748,4.81157301 6.91615066,4.83100063 L9.15030045,6.42406518 C9.4352355,6.62481721 9.8108317,6.63776896 10.1087183,6.46292041 C10.9505719,5.95780238 11.8636592,5.56925005 12.8156013,5.32316691 C13.1458669,5.2325047 13.398423,4.96051807 13.4567051,4.62377272 L13.9229625,1.8844788 C13.9359141,1.80029246 14.0071478,1.74200961 14.0913332,1.74200961 L16.8176435,1.74200961 C16.9018289,1.74200961 16.9730626,1.80029246 16.9860142,1.8844788 L17.43932,4.58491748 C17.4976021,4.92813871 17.7501582,5.20660121 18.0868996,5.29078755 C19.0647449,5.53687069 19.9972596,5.91894715 20.8650163,6.43054105 C21.162903,6.6053896 21.5320234,6.59243785 21.8169584,6.39168582 L24.0511082,4.78566952 C24.0834872,4.76624191 24.1158662,4.75329016 24.1482451,4.75329016 C24.1741483,4.75329016 24.2259547,4.75976603 24.2712853,4.80509714 L26.2010726,6.73490704 C26.2593548,6.79318989 26.2658306,6.8838521 26.2205,6.95508669 L24.6209783,9.20221433 C24.4202286,9.48067683 24.407277,9.85627742 24.5821235,10.1541675 C25.0872356,11.0025068 25.4628318,11.9156048 25.7089121,12.867558 C25.7930975,13.2043033 26.0715567,13.4568623 26.4082981,13.5086693 L29.1281327,13.9684562 C29.212318,13.981408 29.2706002,14.0526426 29.2706002,14.1368289 L29.2706002,16.8631711 L29.2641244,16.8631711 L29.2641244,16.8631711 Z" id="Shape"></path>
                <path d="M15.5030568,8.80718613 C11.8118528,8.80718613 8.81355904,11.8055149 8.81355904,15.4967621 C8.81355904,19.1880092 11.8118528,22.186338 15.5030568,22.186338 C19.1942608,22.186338 22.1925546,19.1880092 22.1925546,15.4967621 C22.1925546,11.8055149 19.1942608,8.80718613 15.5030568,8.80718613 Z M15.5030568,20.4378525 C12.7767465,20.4378525 10.5620241,18.2231042 10.5620241,15.4967621 C10.5620241,12.7704199 12.7767465,10.5556716 15.5030568,10.5556716 C18.2293671,10.5556716 20.4440895,12.7704199 20.4440895,15.4967621 C20.4440895,18.2231042 18.2293671,20.4378525 15.5030568,20.4378525 Z" id="Shape"></path>
            </g>
        </g>
    </g>
</svg>